Devil (2010) 

Verenigde Staten
Horror
80 minuten

geregisseerd door John Erick Dowdle
met Chris Messina, Geoffrey Arend en Logan Marshall-Green

Dutch:
Bowden (Chris Messina), een politierechercheur die net van de drank af is, krijgt te maken met een veel voorkomende situatie. Vijf mensen zitten vast in een lift. Na een reeks onverklaarbare gebeurtenissen komen ze er achter dat één van hen de duivel zelf is. Er zit daarnaast meer achter de vijf personen dan menigeen zal denken. Een strijd op leven en dood begint. Wie zal de lift levend verlaten?

English:
A group of people trapped in an elevator realize that the devil is among them.
******************************************
Dvd Info:

Movie..............: Devil (2010)
genre..............: Horror
Source.............: Devil 720p Bluray x264-CBGB 
Format.............: Divx
Video
ID                               : 0
Format                           : MPEG-4 Visual
Format profile                   : Advanced Simple@L5
Format settings, BVOP            : Yes
Format settings, QPel            : No
Format settings, GMC             : No warppoints
Format settings, Matrix          : Default (H.263)
Muxing mode                      : Packed bitstream
Codec ID                         : XVID
Codec ID/Hint                    : XviD
Duration                         : 1h 20mn
Bit rate                         : 1 074 Kbps
Width                            : 656 pixels
Height                           : 368 pixels
Display aspect ratio             : 16:9
Frame rate                       : 23.976 fps
Color space                      : YUV
Chroma subsampling               : 4:2:0
Bit depth                        : 8 bits
Scan type                        : Progressive
Compression mode                 : Lossy
Bits/(Pixel*Frame)               : 0.186
Stream size                      : 618 MiB (89%)
Writing library                  : XviD 1.2.0.dev47 (UTC 2006-11-01)

Audio
ID                               : 1
Format                           : MPEG Audio
Format version                   : Version 1
Format profile                   : Layer 3
Mode                             : Joint stereo
Mode extension                   : MS Stereo
Codec ID                         : 55
Codec ID/Hint                    : MP3
Duration                         : 1h 20mn
Bit rate mode                    : Constant
Bit rate                         : 128 Kbps
Channel(s)                       : 2 channels
Sampling rate                    : 48.0 KHz
Compression mode                 : Lossy
Stream size                      : 73.7 MiB (11%)
Alignment                        : Aligned on interleaves
Interleave, duration             : 42 ms (1.00 video frame)
Interleave, preload duration     : 504 ms
Writing library                  : LAME3.97 
Encoding settings                : -m j -V 4 -q 2 -lowpass 17 -b 128
Subtitles.NL.......: Vertaald door: SRT,Tokke & Suurtje !!!
Controle...........: Suurtje
Bewerking+Resync...: Suurtje, nice job!!!

  
http://www.moviemeter.nl/film/68038  
http://www.imdb.com/title/tt1314655

******************************************

Brought to you by 

Black Pearl

******************************************

		